<?xml version="1.0" encoding="utf-8"?>
<!-- Generator: Adobe Illustrator 16.0.0, SVG Export Plug-In . SVG Version: 6.00 Build 0)  -->
<!DOCTYPE svg PUBLIC "-//W3C//DTD SVG 1.1//EN" "http://www.w3.org/Graphics/SVG/1.1/DTD/svg11.dtd">
<svg version="1.1" id="圖層_1" xmlns="http://www.w3.org/2000/svg" xmlns:xlink="http://www.w3.org/1999/xlink" x="0px" y="0px"
	 width="136px" height="131px" viewBox="0 0 136 131" enable-background="new 0 0 136 131" xml:space="preserve">
<g>
	<g>
		<g>
			<path fill="#3AAE36" d="M130.04,56.73c0-27.759-27.829-50.345-62.039-50.345C33.795,6.386,5.96,28.972,5.96,56.73
				c0,24.886,22.072,45.735,51.886,49.677c2.02,0.432,4.769,1.336,5.466,3.061c0.627,1.564,0.411,4.02,0.201,5.605
				c0,0-0.727,4.379-0.885,5.316c-0.271,1.564-1.248,6.131,5.373,3.34c6.622-2.789,35.728-21.039,48.742-36.023h-0.004
				C125.734,77.851,130.04,67.843,130.04,56.73z M43.715,73.247H31.388c-1.791,0-3.25-1.457-3.25-3.256V45.339
				c0-1.791,1.459-3.254,3.25-3.254c1.795,0,3.252,1.463,3.252,3.254v21.4h9.075c1.796,0,3.252,1.461,3.252,3.252
				C46.967,71.79,45.511,73.247,43.715,73.247z M56.464,69.991c0,1.799-1.458,3.256-3.251,3.256s-3.251-1.457-3.251-3.256V45.339
				c0-1.791,1.458-3.254,3.251-3.254s3.251,1.463,3.251,3.254V69.991z M86.14,69.991c0,1.406-0.893,2.646-2.225,3.09
				c-0.334,0.111-0.685,0.166-1.032,0.166c-1.017,0-1.987-0.484-2.599-1.303L67.648,54.743v15.248c0,1.799-1.457,3.256-3.252,3.256
				c-1.794,0-3.254-1.457-3.254-3.256V45.339c0-1.4,0.896-2.64,2.226-3.086c0.334-0.11,0.682-0.168,1.031-0.168
				c1.015,0,1.989,0.486,2.598,1.305l12.636,17.207V45.339c0-1.791,1.46-3.254,3.254-3.254c1.795,0,3.253,1.463,3.253,3.254V69.991z
				 M106.086,54.415c1.795,0,3.253,1.457,3.253,3.254c0,1.791-1.458,3.252-3.253,3.252h-9.072v5.818h9.072
				c1.79,0,3.253,1.461,3.253,3.252c0,1.799-1.463,3.256-3.253,3.256H93.758c-1.791,0-3.253-1.457-3.253-3.256V57.677
				c0-0.004,0-0.004,0-0.008c0,0,0-0.006,0-0.008V45.339c0-1.791,1.46-3.254,3.253-3.254h12.328c1.795,0,3.253,1.463,3.253,3.254
				c0,1.796-1.458,3.256-3.253,3.256h-9.072v5.82H106.086z"/>
		</g>
	</g>
</g>
</svg>
